<svg xmlns="http://www.w3.org/2000/svg"
     viewBox="0 0 24 24"
     fill="currentColor"
     aria-hidden="true">
  <path d="M12 .5C5.65.5.5 5.65.5 12c0 5.1 3.3 9.4 7.9 10.9.6.1.8-.2.8-.6v-2c-3.2.7-3.9-1.5-3.9-1.5-.5-1.2-1.2-1.5-1.2-1.5-1-.7.1-.7.1-.7 1.1.1 1.7 1.2 1.7 1.2 1 1.7 2.6 1.2 3.2.9.1-.7.4-1.2.7-1.5-2.5-.3-5.1-1.3-5.1-5.8 0-1.3.5-2.4 1.2-3.3-.1-.3-.5-1.5.1-3.2 0 0 1-.3 3.4 1.2a11 11 0 0 1 6.2 0c2.3-1.5 3.3-1.2 3.3-1.2.6 1.7.2 2.9.1 3.2.8.9 1.2 2 1.2 3.3 0 4.5-2.6 5.5-5.1 5.8.4.3.7 1 .7 2v2.9c0 .4.2.7.8.6A10.99 10.99 0 0 0 23.5 12C23.5 5.65 18.35.5 12 .5z"/>
</svg>
